# xmcd
#
# Track frame offsets:
#	150
#	10575
#	21467
#	34332
#	46120
#	58802
#	69185
#	81690
#	91622
#	102845
#	117447
#	129350
#	140440
#	153875
#	169277
#	181730
#	197372
#	212117
#	222227
#	240160
#	253932
#	264847
#	277882
#	287132
#	300667
#
# Disc length: 4183 seconds
#
# Revision: 6
# Processed by: cddbd v1.5.2PL0 Copyright (c) Steve Scherf et al.
# Submitted via: EZCDAudioConverter 6.0.2.1
#
DISCID=56105519
DTITLE=The Statler Brothers - The Definitive Collection
DYEAR=2005
DGENRE=Country
TTITLE0=Flowers On The Wall
TTITLE1=Bed Of Rose's
TTITLE2=Do You Remember These
TTITLE3=Class Of '57
TTITLE4=I'll Go To My Grave Loving You
TTITLE5=Thank God I've Got You
TTITLE6=I Was There
TTITLE7=Do You Know You Are My Sunshine
TTITLE8=I'll Even Love You Better Than I Did Then
TTITLE9=Don't Wait On Me
TTITLE10=You'll Be Back (Every Night In My Dreams)
TTITLE11=Oh Baby Mine (I Get So Lonely)
TTITLE12=Guilty
TTITLE13=Elizabeth
TTITLE14=Atlanta Blue
TTITLE15=One Takes The Blame
TTITLE16=My Only Love
TTITLE17=Hello Mary Lou
TTITLE18=Too Much On My Heart
TTITLE19=Sweeter And Sweeter
TTITLE20=Count On Me
TTITLE21=Forever
TTITLE22=I'll Be The One
TTITLE23=Let's Get Started If We're Gonna Break My Heart
TTITLE24=More Than A Name On A Wall
EXTD=
EXTT0=
EXTT1=
EXTT2=
EXTT3=
EXTT4=
EXTT5=
EXTT6=
EXTT7=
EXTT8=
EXTT9=
EXTT10=
EXTT11=
EXTT12=
EXTT13=
EXTT14=
EXTT15=
EXTT16=
EXTT17=
EXTT18=
EXTT19=
EXTT20=
EXTT21=
EXTT22=
EXTT23=
EXTT24=
PLAYORDER=
